#!OML:ASF E:\motion texture\Top Level 1\Subject 1\Session 1\male.ASF
:FULLY-SPECIFIED
:DEGREES
145
root 12.7422 17.6694 4.44395 93.451 -88.2843 -86.9153
lowerback -1.21761 -2.30867 -0.189339
upperback -1.57872 -3.09027 1.92617
thorax -0.819119 -1.54398 2.06187
lowerneck -9.22878 -5.67005 -5.00304
upperneck 23.0344 -10.1448 9.81668
head 9.53972 -4.45411 3.03858
rclavicle 1.44616e-014 -2.06736e-014
rhumerus 33.8428 -22.4709 1.68483
rradius 116.112
rwrist -53.7203
rhand -0.729445 -25.5794
rfingers 7.12502
rthumb 24.8915 -53.9787
lclavicle 1.44616e-014 -2.06736e-014
lhumerus -32.1993 12.3402 71.9086
lradius 23.7287
lwrist -27.5864
lhand -10.0637 16.9837
lfingers 7.12502
lthumb 15.9223 46.3492
rfemur -32.6452 1.35284 18.3958
rtibia 15.6504
rfoot -3.60739 -13.6785
rtoes 1.85939
lfemur 5.09624 -3.6493 -19.3992
ltibia 14.2133
lfoot -16.2111 0.841647
ltoes -11.2344
146
root 12.6092 17.6655 4.42061 91.5508 -88.3142 -84.9668
lowerback -1.17729 -2.30793 -0.242327
upperback -1.59588 -3.08853 1.9366
thorax -0.856023 -1.54228 2.1045
lowerneck -9.22803 -5.68308 -5.0242
upperneck 23.0129 -10.1488 9.79678
head 9.53227 -4.45915 3.0347
rclavicle 1.82509e-014 -1.37161e-014
rhumerus 34.2935 -23.6189 0.557822
rradius 116.56
rwrist -53.3199
rhand -0.981256 -25.531
rfingers 7.12502
rthumb 24.6502 -53.9634
lclavicle 1.82509e-014 -1.37161e-014
lhumerus -32.3674 12.7658 71.6925
lradius 23.4915
lwrist -27.9905
lhand -10.0723 16.8962
lfingers 7.12502
lthumb 15.914 46.2623
rfemur -32.7645 1.18246 18.5867
rtibia 16.74
rfoot -3.57583 -13.1535
rtoes 2.35971
lfemur 5.28577 -3.77271 -19.3713
ltibia 14.6106
lfoot -16.2118 0.743645
ltoes -12.1743
147
root 12.4739 17.6631 4.396 88.7693 -88.3283 -82.1309
lowerback -1.14607 -2.31042 -0.2886
upperback -1.61557 -3.09129 1.95152
thorax -0.890356 -1.54291 2.1476
lowerneck -9.22711 -5.6988 -5.04705
upperneck 23.0074 -10.1568 9.76873
head 9.53039 -4.4668 3.02787
rclavicle -1.56543e-015 -2.38542e-015
rhumerus 34.8109 -24.8602 -0.704059
rradius 117.048
rwrist -52.7442
rhand -1.24935 -25.3981
rfingers 7.12502
rthumb 24.3932 -53.8654
lclavicle -1.56543e-015 -2.38542e-015
lhumerus -32.5466 13.1671 71.4892
lradius 23.2807
lwrist -28.3509
lhand -10.0862 16.8273
lfingers 7.12502
lthumb 15.9006 46.1945
rfemur -32.8254 1.08939 18.7533
rtibia 17.7079
rfoot -3.49821 -12.7291
rtoes 2.83538
lfemur 5.4505 -3.9158 -19.3269
ltibia 15.0415
lfoot -16.1705 0.647989
ltoes -13.1738
148
root 12.3366 17.6624 4.37034 85.4242 -88.3076 -78.7272
lowerback -1.12107 -2.31484 -0.313056
upperback -1.63963 -3.09691 1.97685
thorax -0.926163 -1.54519 2.18904
lowerneck -9.22546 -5.71964 -5.07749
upperneck 23.0237 -10.1733 9.73615
head 9.53691 -4.47935 3.0198
rclavicle 7.97623e-015 2.98177e-015
rhumerus 35.3914 -26.1599 -2.06763
rradius 117.567
rwrist -52.0224
rhand -1.54161 -25.1673
rfingers 7.12502
rthumb 24.113 -53.672
lclavicle 7.97623e-015 2.98177e-015
lhumerus -32.7425 13.5594 71.295
lradius 23.096
lwrist -28.6811
lhand -10.1005 16.8028
lfingers 7.12502
lthumb 15.8869 46.1711
rfemur -32.828 1.06899 18.9115
rtibia 18.4953
rfoot -3.30743 -12.4158
rtoes 3.20312
lfemur 5.59478 -4.0968 -19.2544
ltibia 15.5018
lfoot -16.0809 0.57011
ltoes -14.2277
149
root 12.1973 17.6636 4.34385 82.0256 -88.2358 -75.2642
lowerback -1.10431 -2.32006 -0.297183
upperback -1.66682 -3.10402 2.01628
thorax -0.961839 -1.54868 2.22215
lowerneck -9.23209 -5.74551 -5.11967
upperneck 23.0627 -10.1989 9.7056
head 9.55458 -4.49636 3.01312
rclavicle -2.5109e-014 2.22639e-014
rhumerus 36.0368 -27.4922 -3.51605
rradius 118.11
rwrist -51.1986
rhand -1.82888 -24.8762
rfingers 7.12502
rthumb 23.8375 -53.4171
lclavicle -2.5109e-014 2.22639e-014
lhumerus -32.9461 13.9353 71.1164
lradius 22.9376
lwrist -28.9677
lhand -10.1037 16.8216
lfingers 7.12502
lthumb 15.8838 46.1902
rfemur -32.7771 1.10777 19.0827
rtibia 19.0709
rfoot -2.94151 -12.1987
rtoes 3.35013
lfemur 5.72092 -4.32179 -19.1394
ltibia 15.9857
lfoot -15.9385 0.517482
ltoes -15.3385
150
root 12.0559 17.667 4.31677 79.2617 -88.1009 -72.4365
lowerback -1.09238 -2.32378 -0.227324
upperback -1.69286 -3.10957 2.07478
thorax -0.995483 -1.55207 2.24441
lowerneck -9.24889 -5.77483 -5.16698
upperneck 23.118 -10.2298 9.67212
head 9.58053 -4.51598 3.00537
rclavicle 2.82647e-014 -3.77691e-015
rhumerus 36.7488 -28.8429 -5.03492
rradius 118.681
rwrist -50.3651
rhand -2.11332 -24.549
rfingers 7.12502
rthumb 23.5647 -53.1253
lclavicle 2.82647e-014 -3.77691e-015
lhumerus -33.1533 14.3075 70.9499
lradius 22.7976
lwrist -29.2114
lhand -10.0997 16.8694
lfingers 7.12502
lthumb 15.8876 46.2376
rfemur -32.6676 1.19299 19.2953
rtibia 19.4338
rfoot -2.37262 -12.0467
rtoes 3.27501
lfemur 5.82979 -4.57327 -18.962
ltibia 16.5038
lfoot -15.7456 0.482127
ltoes -16.4932
